<svg width="13" height="10" viewBox="0 0 13 10" fill="none" xmlns="http://www.w3.org/2000/svg">
<path d="M12.7816 1.23482L11.762 0.222406C11.6936 0.152047 11.6116 0.096102 11.521 0.0578952C11.4304 0.0196884 11.3331 0 11.2347 0C11.1363 0 11.0389 0.0196884 10.9483 0.0578952C10.8577 0.096102 10.7758 0.152047 10.7073 0.222406L4.72512 6.1797L2.29266 3.75339C2.15217 3.61632 1.9633 3.53955 1.76658 3.53955C1.56987 3.53955 1.38099 3.61632 1.24051 3.75339L0.22343 4.7683C0.152747 4.83642 0.0965445 4.918 0.0581618 5.00817C0.0197791 5.09834 0 5.19528 0 5.29321C0 5.39114 0.0197791 5.48808 0.0581618 5.57825C0.0965445 5.66843 0.152747 5.75 0.22343 5.81812L4.19905 9.77801C4.26657 9.84919 4.34818 9.90566 4.43872 9.94386C4.52927 9.98206 4.62679 10.0012 4.72512 9.99995C4.82297 10.0004 4.91988 9.9809 5.00991 9.94274C5.09993 9.90458 5.18119 9.84852 5.24869 9.77801L12.7766 2.29711C12.8473 2.22899 12.9035 2.14741 12.9418 2.05724C12.9802 1.96707 13 1.87013 13 1.7722C13 1.67427 12.9802 1.57733 12.9418 1.48716C12.9035 1.39698 12.8473 1.31541 12.7766 1.24729L12.7816 1.23482Z" fill="#1a1a1a"></path>
</svg>