<svg width="32" height="32" viewBox="0 0 32 32" fill="none" xmlns="http://www.w3.org/2000/svg">
<path d="M10.1818 0.000145465C9.98907 -0.00258041 9.79771 0.0330286 9.61885 0.104903C9.43998 0.176777 9.27719 0.283483 9.13993 0.41882C9.00266 0.554157 8.89366 0.715425 8.81927 0.893253C8.74487 1.07108 8.70656 1.26192 8.70656 1.45468C8.70656 1.64745 8.74487 1.83829 8.81927 2.01612C8.89366 2.19394 9.00266 2.35521 9.13993 2.49055C9.27719 2.62589 9.43998 2.73259 9.61885 2.80447C9.79771 2.87634 9.98907 2.91195 10.1818 2.90922V11.6365V13.091V14.5455L0.65625 27.25V27.2529C0.232368 27.7717 0.00056517 28.4209 0 29.0909C0 29.8625 0.306493 30.6024 0.852053 31.148C1.39761 31.6935 2.13755 32 2.90909 32H16H29.0909C29.8624 32 30.6024 31.6935 31.1479 31.148C31.6935 30.6024 32 29.8625 32 29.0909C31.9994 28.4209 31.7676 27.7717 31.3438 27.2529V27.25L21.8182 14.5455V13.091V11.6365V2.90922C22.0109 2.91195 22.2023 2.87634 22.3812 2.80447C22.56 2.73259 22.7228 2.62589 22.8601 2.49055C22.9973 2.35521 23.1063 2.19394 23.1807 2.01612C23.2551 1.83829 23.2934 1.64745 23.2934 1.45468C23.2934 1.26192 23.2551 1.07108 23.1807 0.893253C23.1063 0.715425 22.9973 0.554157 22.8601 0.41882C22.7228 0.283483 22.56 0.176777 22.3812 0.104903C22.2023 0.0330286 22.0109 -0.00258041 21.8182 0.000145465H10.1818ZM13.0909 2.90922H18.9091V11.6365H13.0909V2.90922ZM14.5455 14.5455C15.3484 14.5455 16 15.1972 16 16.0001C16 16.803 15.3484 17.4546 14.5455 17.4546C13.7425 17.4546 13.0909 16.803 13.0909 16.0001C13.0909 15.1972 13.7425 14.5455 14.5455 14.5455ZM19.6364 23.2728C20.8407 23.2728 21.8182 24.2502 21.8182 25.4546C21.8182 26.6589 20.8407 27.6364 19.6364 27.6364C18.432 27.6364 17.4545 26.6589 17.4545 25.4546C17.4545 24.2502 18.432 23.2728 19.6364 23.2728Z" fill="url(#paint0_linear_71_1021)"/>
<defs>
<linearGradient id="paint0_linear_71_1021" x1="16" y1="0" x2="16" y2="32" gradientUnits="userSpaceOnUse">
<stop stop-color="#C6A0ED"/>
<stop offset="1" stop-color="#AF63FF"/>
</linearGradient>
</defs>
</svg>
