<svg width="26" height="26" viewBox="0 0 26 26" fill="none" xmlns="http://www.w3.org/2000/svg">
<path d="M13.0887 0C10.5616 0.00182657 8.08904 0.729197 5.96907 2.09441C3.8491 3.45961 2.17228 5.40437 1.14079 7.69417C0.10931 9.98397 -0.232789 12.521 0.155744 14.9995C0.544277 17.4779 1.64685 19.7919 3.33052 21.6624C3.58697 21.9644 3.86028 22.252 4.14917 22.5236C4.32927 22.6943 4.51755 22.8649 4.71403 23.0274C4.9105 23.1899 5.19703 23.4012 5.43443 23.5637H4.90232C4.6852 23.5637 4.47697 23.6493 4.32345 23.8017C4.16992 23.9541 4.08367 24.1607 4.08367 24.3762C4.08367 24.5917 4.16992 24.7984 4.32345 24.9508C4.47697 25.1032 4.6852 25.1888 4.90232 25.1888H7.35824C7.57536 25.1888 7.78358 25.1032 7.93711 24.9508C8.09063 24.7984 8.17688 24.5917 8.17688 24.3762V21.9386C8.17688 21.7231 8.09063 21.5164 7.93711 21.3641C7.78358 21.2117 7.57536 21.1261 7.35824 21.1261C7.14112 21.1261 6.9329 21.2117 6.77937 21.3641C6.62585 21.5164 6.5396 21.7231 6.5396 21.9386V22.3205C6.29401 22.1499 6.04023 21.9711 5.77826 21.768C5.5163 21.5648 5.45899 21.4917 5.31164 21.3455C5.16428 21.1992 4.79589 20.8498 4.5503 20.5817C2.80139 18.6397 1.77693 16.1607 1.64809 13.5591C1.51926 10.9575 2.29386 8.39082 3.84246 6.28793C5.39107 4.18504 7.61986 2.67333 10.1564 2.00542C12.693 1.33751 15.3836 1.55385 17.7788 2.61829C20.174 3.68273 22.1286 5.53079 23.316 7.85367C24.5034 10.1765 24.8516 12.8335 24.3026 15.3806C23.7535 17.9277 22.3404 20.2107 20.2994 21.848C18.2584 23.4853 15.713 24.3777 13.0887 24.3762C12.3188 24.3795 11.5506 24.3032 10.7965 24.1487C10.689 24.1274 10.5783 24.1273 10.4708 24.1484C10.3632 24.1695 10.2609 24.2114 10.1697 24.2718C10.0785 24.3322 10.0001 24.4098 9.93913 24.5002C9.87813 24.5906 9.83566 24.6921 9.81416 24.7988C9.79266 24.9055 9.79255 25.0153 9.81382 25.1221C9.8351 25.2288 9.87735 25.3304 9.93816 25.4209C9.99898 25.5115 10.0772 25.5892 10.1683 25.6498C10.2594 25.7103 10.3616 25.7525 10.4691 25.7738C12.2527 26.1084 14.0869 26.0714 15.8554 25.6651C17.6239 25.2589 19.2879 24.4922 20.742 23.4137C22.1962 22.3353 23.4085 20.9686 24.3023 19.4004C25.1961 17.8323 25.7517 16.0968 25.9339 14.3043C26.1161 12.5117 25.9209 10.7011 25.3607 8.98731C24.8005 7.27355 23.8876 5.69408 22.6798 4.34909C21.472 3.00411 19.9957 1.92297 18.3447 1.17429C16.6936 0.425608 14.9038 0.0257205 13.0887 0Z" fill="#06C10C"/>
<path d="M21.2751 13.0007C21.2751 11.3936 20.795 9.82264 19.8955 8.48642C18.9959 7.15021 17.7174 6.10875 16.2215 5.49376C14.7257 4.87877 13.0796 4.71786 11.4916 5.03138C9.90363 5.3449 8.44495 6.11877 7.30006 7.25513C6.15517 8.39149 5.37549 9.8393 5.05962 11.4155C4.74374 12.9916 4.90586 14.6254 5.52547 16.1101C6.14508 17.5949 7.19435 18.8639 8.5406 19.7567C9.88685 20.6495 11.4696 21.1261 13.0887 21.1261C15.2599 21.1261 17.3421 20.27 18.8774 18.7462C20.4126 17.2224 21.2751 15.1557 21.2751 13.0007ZM6.5396 13.0007C6.5396 11.715 6.9237 10.4582 7.64333 9.38927C8.36295 8.3203 9.38579 7.48713 10.5825 6.99514C11.7792 6.50315 13.096 6.37442 14.3664 6.62523C15.6368 6.87605 16.8037 7.49515 17.7197 8.40423C18.6356 9.31332 19.2593 10.4716 19.512 11.7325C19.7647 12.9935 19.635 14.3005 19.1393 15.4882C18.6436 16.676 17.8042 17.6912 16.7272 18.4055C15.6502 19.1198 14.384 19.501 13.0887 19.501C11.3518 19.501 9.68599 18.8161 8.45779 17.5971C7.22959 16.378 6.5396 14.7247 6.5396 13.0007Z" fill="#06C10C"/>
<path d="M13.9074 17.0634V16.9171C14.4488 16.7221 14.9039 16.3445 15.1933 15.8501C15.4826 15.3558 15.5877 14.7763 15.4901 14.2129C15.3926 13.6495 15.0987 13.138 14.6597 12.7679C14.2207 12.3978 13.6647 12.1926 13.0887 12.1881C12.8716 12.1881 12.6634 12.1025 12.5099 11.9501C12.3563 11.7978 12.2701 11.5911 12.2701 11.3756C12.2701 11.1601 12.3563 10.9534 12.5099 10.801C12.6634 10.6486 12.8716 10.563 13.0887 10.563H14.726C14.9431 10.563 15.1514 10.4774 15.3049 10.3251C15.4584 10.1727 15.5447 9.966 15.5447 9.7505C15.5447 9.535 15.4584 9.32832 15.3049 9.17594C15.1514 9.02356 14.9431 8.93796 14.726 8.93796H13.9074C13.9074 8.72246 13.8211 8.51578 13.6676 8.3634C13.5141 8.21102 13.3058 8.12541 13.0887 8.12541C12.8716 8.12541 12.6634 8.21102 12.5099 8.3634C12.3563 8.51578 12.2701 8.72246 12.2701 8.93796V9.08421C11.7287 9.27921 11.2735 9.65687 10.9842 10.1512C10.6949 10.6455 10.5898 11.225 10.6873 11.7884C10.7849 12.3519 11.0788 12.8633 11.5178 13.2334C11.9567 13.6036 12.5128 13.8088 13.0887 13.8132C13.3058 13.8132 13.5141 13.8988 13.6676 14.0512C13.8211 14.2036 13.9074 14.4102 13.9074 14.6257C13.9074 14.8412 13.8211 15.0479 13.6676 15.2003C13.5141 15.3527 13.3058 15.4383 13.0887 15.4383H11.4514C11.2343 15.4383 11.0261 15.5239 10.8726 15.6763C10.7191 15.8287 10.6328 16.0353 10.6328 16.2508C10.6328 16.4663 10.7191 16.673 10.8726 16.8254C11.0261 16.9778 11.2343 17.0634 11.4514 17.0634H12.2701C12.2701 17.2789 12.3563 17.4855 12.5099 17.6379C12.6634 17.7903 12.8716 17.8759 13.0887 17.8759C13.3058 17.8759 13.5141 17.7903 13.6676 17.6379C13.8211 17.4855 13.9074 17.2789 13.9074 17.0634Z" fill="#06C10C"/>
</svg>
