<svg width="130" height="27" viewBox="0 0 130 27" fill="none" xmlns="http://www.w3.org/2000/svg">
<path d="M11.5714 3.17505C11.8573 2.22666 13.2002 2.22666 13.4862 3.17505L15.1272 8.61697C15.2545 9.03928 15.6435 9.32827 16.0846 9.32827H21.5448C22.4953 9.32827 22.9097 10.5297 22.1612 11.1157L17.6185 14.672C17.2939 14.9261 17.1585 15.3534 17.2775 15.7481L18.9819 21.4002C19.2637 22.3348 18.1767 23.0781 17.408 22.4763L13.1452 19.1391C12.7831 18.8557 12.2744 18.8557 11.9123 19.1391L7.64951 22.4763C6.88086 23.0781 5.79384 22.3348 6.07566 21.4002L7.78003 15.7481C7.89905 15.3534 7.76366 14.9261 7.43905 14.672L2.89637 11.1157C2.14788 10.5297 2.56224 9.32827 3.5128 9.32827H8.97296C9.41404 9.32827 9.80303 9.03928 9.93038 8.61697L11.5714 3.17505Z" fill="#AE63FF"/>
<path d="M37.629 3.17505C37.915 2.22666 39.2578 2.22666 39.5438 3.17505L41.1848 8.61697C41.3121 9.03928 41.7011 9.32827 42.1422 9.32827H47.6024C48.5529 9.32827 48.9673 10.5297 48.2188 11.1157L43.6761 14.672C43.3515 14.9261 43.2161 15.3534 43.3351 15.7481L45.0395 21.4002C45.3213 22.3348 44.2343 23.0781 43.4657 22.4763L39.2028 19.1391C38.8407 18.8557 38.332 18.8557 37.97 19.1391L33.7071 22.4763C32.9385 23.0781 31.8515 22.3348 32.1333 21.4002L33.8376 15.7481C33.9567 15.3534 33.8213 14.9261 33.4967 14.672L28.954 11.1157C28.2055 10.5297 28.6199 9.32827 29.5704 9.32827H35.0306C35.4717 9.32827 35.8607 9.03928 35.988 8.61697L37.629 3.17505Z" fill="#AE63FF"/>
<path d="M63.6866 3.17505C63.9726 2.22666 65.3154 2.22666 65.6014 3.17505L67.2424 8.61697C67.3698 9.03928 67.7587 9.32827 68.1998 9.32827H73.66C74.6106 9.32827 75.0249 10.5297 74.2764 11.1157L69.7337 14.672C69.4091 14.9261 69.2737 15.3534 69.3928 15.7481L71.0971 21.4002C71.379 22.3348 70.2919 23.0781 69.5233 22.4763L65.2604 19.1391C64.8984 18.8557 64.3897 18.8557 64.0276 19.1391L59.7647 22.4763C58.9961 23.0781 57.9091 22.3348 58.1909 21.4002L59.8953 15.7481C60.0143 15.3534 59.8789 14.9261 59.5543 14.672L55.0116 11.1157C54.2631 10.5297 54.6775 9.32827 55.628 9.32827H61.0882C61.5293 9.32827 61.9183 9.03928 62.0456 8.61697L63.6866 3.17505Z" fill="#AE63FF"/>
<path d="M89.7442 3.17505C90.0302 2.22666 91.3731 2.22666 91.659 3.17505L93.3 8.61697C93.4274 9.03928 93.8164 9.32827 94.2574 9.32827H99.7176C100.668 9.32827 101.083 10.5297 100.334 11.1157L95.7914 14.672C95.4667 14.9261 95.3314 15.3534 95.4504 15.7481L97.1547 21.4002C97.4366 22.3348 96.3495 23.0781 95.5809 22.4763L91.3181 19.1391C90.956 18.8557 90.4473 18.8557 90.0852 19.1391L85.8224 22.4763C85.0537 23.0781 83.9667 22.3348 84.2485 21.4002L85.9529 15.7481C86.0719 15.3534 85.9365 14.9261 85.6119 14.672L81.0692 11.1157C80.3207 10.5297 80.7351 9.32827 81.6857 9.32827H87.1458C87.5869 9.32827 87.9759 9.03928 88.1032 8.61697L89.7442 3.17505Z" fill="#AE63FF"/>
<path d="M115.801 3.17505C116.087 2.22666 117.43 2.22666 117.716 3.17505L119.357 8.61697C119.484 9.03928 119.873 9.32827 120.315 9.32827H125.775C126.725 9.32827 127.14 10.5297 126.391 11.1157L121.848 14.672C121.524 14.9261 121.388 15.3534 121.507 15.7481L123.212 21.4002C123.494 22.3348 122.407 23.0781 121.638 22.4763L117.375 19.1391C117.013 18.8557 116.504 18.8557 116.142 19.1391L111.879 22.4763C111.111 23.0781 110.024 22.3348 110.306 21.4002L112.01 15.7481C112.129 15.3534 111.994 14.9261 111.669 14.672L107.126 11.1157C106.378 10.5297 106.792 9.32827 107.743 9.32827H113.203C113.644 9.32827 114.033 9.03928 114.16 8.61697L115.801 3.17505Z" fill="#AE63FF"/>
</svg>
