<svg width="34" height="34" viewBox="0 0 34 34" fill="none" xmlns="http://www.w3.org/2000/svg">
<path d="M17 0C7.61175 0 0 7.61175 0 17C0 26.3882 7.61175 34 17 34C26.3882 34 34 26.3882 34 17C34 7.61175 26.3882 0 17 0ZM25.4731 15.2122L25.4589 15.2816C25.4561 15.2957 25.4532 15.3085 25.4504 15.3227L24.0408 22.3805C24.0408 22.3848 24.0394 22.3876 24.038 22.3918L24.0366 22.3961C23.8354 23.3594 22.9812 24.0833 21.9583 24.0833H14.7532C13.4711 24.0833 12.24 23.5733 11.3333 22.6667H9.91667V13.4583H10.3488C11.3914 13.4583 12.3505 12.886 12.8449 11.9666L14.1667 7.599V5.66667C14.1667 5.66667 14.1992 5.66667 14.9076 5.66667C16.3242 5.66667 17.3542 6.90483 17.3542 8.5C17.3542 9.6985 16.6458 12.75 16.6458 12.75H23.375C24.548 12.75 25.5 13.702 25.5 14.875C25.5 14.9883 25.4844 15.096 25.4674 15.2051L25.4731 15.2122Z" fill="url(#paint0_linear_71_1030)"/>
<defs>
<linearGradient id="paint0_linear_71_1030" x1="17" y1="0" x2="17" y2="34" gradientUnits="userSpaceOnUse">
<stop stop-color="#C6A0ED"/>
<stop offset="1" stop-color="#AF63FF"/>
</linearGradient>
</defs>
</svg>
