<svg width="118" height="35" viewBox="0 0 118 35" fill="none" xmlns="http://www.w3.org/2000/svg">
<g opacity="0.35" clip-path="url(#clip0_1_442)">
<path d="M9.62291 9.02159H0V0.0671387H29.8172V9.02159H20.1974V35.0001H9.62291V9.02159Z" fill="#231F20"/>
<path d="M31.4629 0.0671387H60.4101V9.02159H42.0437V13.3758H60.4101V21.6946H42.0437V26.0488H60.4133V35.0001H31.4629V0.0671387Z" fill="#231F20"/>
<path d="M62.1878 0.0671387H79.5492C90.9937 0.0671387 95.0388 8.67658 95.0388 17.4809C95.0388 28.1988 89.4611 34.9969 77.4827 34.9969H62.1846V0.0671387H62.1878ZM72.7686 26.0456H76.9079C83.5001 26.0456 84.4612 20.6148 84.4612 17.3307C84.4612 15.1329 83.7828 9.0184 76.1353 9.0184H72.7686V26.0456Z" fill="#231F20"/>
<path d="M110.246 21.538L107.017 16.0944L103.87 21.538H96.1192L103.478 10.5294L96.3893 0H104.144L107.014 5.204L109.969 0H117.721L110.635 10.5294L117.994 21.538H110.24H110.246Z" fill="#231F20"/>
</g>
<defs>
<clipPath id="clip0_1_442">
<rect width="118" height="35" fill="white"/>
</clipPath>
</defs>
</svg>
