<svg width="27" height="27" viewBox="0 0 27 27" fill="none" xmlns="http://www.w3.org/2000/svg">
<path id="Vector" d="M13.5 27C20.9554 27 27 20.9554 27 13.5C27 6.04463 20.9554 3.28626e-06 13.5 2.63449e-06C6.04462 1.98272e-06 -1.98272e-06 6.04463 -2.63449e-06 13.5C-3.28626e-06 20.9554 6.04462 27 13.5 27ZM13.5 24.75C7.28662 24.75 2.25 19.7134 2.25 13.5C2.25 7.28662 7.28663 2.25 13.5 2.25C19.7134 2.25 24.75 7.28663 24.75 13.5C24.75 19.7134 19.7134 24.75 13.5 24.75ZM14.625 19.125C14.913 19.125 15.201 19.0148 15.4204 18.7954L19.9204 14.2954C20.3603 13.8555 20.3603 13.1445 19.9204 12.7046L15.4204 8.20459C14.9805 7.76472 14.2695 7.76472 13.8296 8.20459C13.3897 8.64447 13.3897 9.35554 13.8296 9.79541L16.4092 12.375L7.875 12.375C7.254 12.375 6.75 12.8779 6.75 13.5C6.75 14.1221 7.254 14.625 7.875 14.625L16.4092 14.625L13.8296 17.2046C13.3897 17.6445 13.3897 18.3555 13.8296 18.7954C14.049 19.0148 14.337 19.125 14.625 19.125Z" fill="white"/>
</svg>
