<svg width="28" height="39" viewBox="0 0 28 39" fill="none" xmlns="http://www.w3.org/2000/svg">
<path d="M13.9986 0C13.4855 0 12.9728 0.256615 12.6725 0.773003L12.0901 1.78016C11.8381 2.2135 11.4216 2.50491 10.9498 2.6378C10.9442 2.63925 10.939 2.642 10.9334 2.64345C10.456 2.77922 9.94964 2.73955 9.51704 2.4911L8.52448 1.92122C7.50389 1.33622 6.24723 2.08339 6.22763 3.2895L6.20576 4.48003C6.19736 4.9827 5.98141 5.44921 5.63701 5.80599C5.63281 5.80888 5.62887 5.81294 5.62607 5.81727C5.28168 6.17405 4.82813 6.39541 4.34093 6.40408L3.18704 6.42383C2.01945 6.44405 1.29389 7.742 1.86088 8.79644L2.41596 9.82617C2.65395 10.2696 2.69381 10.788 2.56361 11.2763C2.55941 11.2849 2.55821 11.293 2.55541 11.3016C2.42801 11.7855 2.14543 12.2111 1.72964 12.4696L0.750741 13.0762C-0.250247 13.6958 -0.250247 15.1931 0.750741 15.8127L1.72964 16.4193C2.14683 16.6778 2.42801 17.1033 2.55541 17.5872C2.55821 17.5959 2.55808 17.6053 2.56088 17.6154C2.69107 18.1037 2.65395 18.6235 2.41596 19.0655L1.86088 20.0953C1.29389 21.1483 2.01805 22.4448 3.18704 22.4651L4.34093 22.4848C4.82953 22.4935 5.28168 22.7191 5.62607 23.0744L5.63701 23.0857C5.98281 23.4411 6.19736 23.909 6.20576 24.4117L6.2249 25.5994C6.2445 26.8041 7.50389 27.554 8.52448 26.9705L9.52251 26.3978C9.95231 26.1522 10.4548 26.1111 10.928 26.2454C10.9364 26.2483 10.9442 26.251 10.9526 26.2539C11.4216 26.3853 11.834 26.6755 12.0846 27.1059L12.6725 28.1159C13.2731 29.1487 14.7242 29.1487 15.3248 28.1159L15.9127 27.1059C16.1633 26.6755 16.5757 26.3853 17.0447 26.2539C17.0531 26.251 17.0636 26.2483 17.072 26.2454C17.5452 26.1111 18.0491 26.1522 18.4775 26.3978L19.4755 26.9705C20.4961 27.5555 21.7528 26.8055 21.7724 25.5994L21.7915 24.4117C21.7999 23.9076 22.0186 23.4411 22.363 23.0857L22.3739 23.0744C22.7183 22.7177 23.1719 22.4935 23.6591 22.4848L24.8102 22.4651C25.9778 22.4448 26.7047 21.1483 26.1391 20.0953L25.584 19.0655C25.346 18.6221 25.3062 18.1037 25.4364 17.6154C25.4392 17.6068 25.4418 17.5959 25.4446 17.5872C25.572 17.1033 25.8532 16.6778 26.2704 16.4193L27.2493 15.8127C28.2502 15.1916 28.2502 13.6973 27.2493 13.0762L26.2704 12.4696C25.8532 12.2111 25.572 11.7855 25.4446 11.3016C25.4418 11.293 25.4392 11.2821 25.4364 11.2734C25.3062 10.7852 25.346 10.2654 25.584 9.82335L26.1391 8.79362C26.7061 7.74062 25.9792 6.44405 24.8102 6.42383L23.6591 6.40408C23.1705 6.39541 22.7183 6.16979 22.3739 5.81445L22.363 5.80317C22.0172 5.44783 21.7999 4.97988 21.7915 4.47721L21.7724 3.2895C21.7528 2.08483 20.4961 1.33485 19.4755 1.9184L18.4775 2.4911C18.0477 2.73666 17.5452 2.77778 17.072 2.64345C17.0636 2.64056 17.0531 2.63787 17.0447 2.63498C16.5757 2.50354 16.1633 2.21199 15.9127 1.78299L15.3248 0.773003C15.0245 0.256615 14.5117 0 13.9986 0ZM19.5986 10.1111C19.9566 10.1111 20.3147 10.2519 20.5884 10.5343C21.1358 11.0991 21.1358 12.012 20.5884 12.5768L14.2037 19.1643C13.9405 19.4358 13.5849 19.5875 13.2139 19.5875C12.8429 19.5875 12.4858 19.4358 12.224 19.1643L8.78971 15.6209C8.24232 15.0561 8.24232 14.1431 8.78971 13.5783C9.3371 13.0136 10.222 13.0136 10.7694 13.5783L13.2139 16.1005L18.6087 10.5343C18.8824 10.2519 19.2405 10.1111 19.5986 10.1111ZM3.84602 27.467L0.75621 35.104L6.18388 34.6131L9.79868 39L12.7955 31.5944C11.7525 31.2867 10.8499 30.5965 10.2717 29.5998L10.1268 29.3516L9.88345 29.4926C9.23665 29.8624 8.50886 30.0569 7.77527 30.0569C6.04769 30.0569 4.54461 28.9909 3.84602 27.467ZM24.1512 27.467C23.4527 28.9909 21.9496 30.0597 20.222 30.0597C19.4898 30.0597 18.7606 29.8638 18.1138 29.4926L17.8705 29.3516L17.7255 29.5998C17.1459 30.595 16.242 31.2882 15.199 31.5944L18.1986 39L21.8134 34.6159L27.2411 35.104L24.1512 27.467Z" fill="url(#paint0_linear_71_1025)"/>
<defs>
<linearGradient id="paint0_linear_71_1025" x1="14" y1="0" x2="14" y2="39" gradientUnits="userSpaceOnUse">
<stop stop-color="#C6A0ED"/>
<stop offset="1" stop-color="#AF63FF"/>
</linearGradient>
</defs>
</svg>
