<svg width="20" height="16" viewBox="0 0 20 16" fill="none" xmlns="http://www.w3.org/2000/svg">
<path id="Vector" d="M9.23077 0C9.04588 7.64016e-05 8.86721 0.0631085 8.72746 0.177557L8.72145 0.184659C8.68458 0.215169 8.65087 0.248939 8.62079 0.285511L3.84615 5.09091V8V10.9091L8.6223 15.7159C8.69399 15.8041 8.78612 15.8756 8.89161 15.9248C8.99709 15.9741 9.11312 15.9998 9.23077 16C9.43478 16 9.63044 15.9234 9.7747 15.787C9.91896 15.6506 10 15.4656 10 15.2727V8V0.727273C10 0.534388 9.91896 0.349404 9.7747 0.213013C9.63044 0.0766233 9.43478 0 9.23077 0ZM15.7227 1.0554L14.8963 2.28125C17.0202 3.40052 18.4615 5.54327 18.4615 8C18.4615 10.4567 17.0209 12.5995 14.8978 13.7188L15.7227 14.9446C18.2734 13.5657 20 10.9716 20 8C20 5.02836 18.2742 2.43431 15.7227 1.0554ZM14.0715 3.50994L13.2332 4.75284C14.5016 5.34775 15.3846 6.57309 15.3846 8C15.3846 9.42691 14.5016 10.6523 13.2332 11.2472L14.0715 12.4901C15.7669 11.6319 16.9231 9.94182 16.9231 8C16.9231 6.05818 15.7669 4.36812 14.0715 3.50994ZM1.53846 5.09091C0.688462 5.09091 0 5.74182 0 6.54545V9.45455C0 10.2582 0.688462 10.9091 1.53846 10.9091H2.30769V5.09091H1.53846ZM12.4069 5.98153L11.5385 7.26989V7.27273C11.9623 7.27273 12.3077 7.59855 12.3077 8C12.3077 8.40145 11.9623 8.72727 11.5385 8.72727V8.73011L12.4069 10.0185C13.2499 9.6941 13.8462 8.91273 13.8462 8C13.8462 7.08727 13.2499 6.30663 12.4069 5.98153Z" fill="white"/>
</svg>
